<svg version="1.1" xmlns="http://www.w3.org/2000/svg" xmlns:xlink="http://www.w3.org/1999/xlink" width="1318.693359375" height="658"><defs/><g><g transform="translate(2,-6) scale(1,1)"><rect fill="#C0C0C0" stroke="none" x="575" y="23" width="164.7080078125" height="117" opacity="0.2"/></g><g transform="translate(2,-6) scale(1,1)"><rect fill="#ffffff" stroke="none" x="568" y="16" width="164.7080078125" height="117"/></g><g transform="translate(2,-6) scale(1,1)"><path fill="none" stroke="#000000" d="M 568 16 L 732.7080078125 16 L 732.7080078125 133 L 568 133 L 568 16 Z Z" stroke-miterlimit="10"/></g><g transform="translate(2,-6) scale(1,1)"><path fill="none" stroke="#000000" d="M 568 41 L 732.7080078125 41" stroke-miterlimit="10"/></g><g transform="translate(2,-6) scale(1,1)"><path fill="none" stroke="#000000" d="M 568 51 L 732.7080078125 51" stroke-miterlimit="10"/></g><g transform="translate(2,-6) scale(1,1)"><g><path fill="none" stroke="none"/><text fill="#000000" stroke="none" font-family="Arial" font-size="13px" font-style="italic" font-weight="bold" text-decoration="none" x="610.608154296875" y="35.5">AbstractLigne</text></g></g><g transform="translate(2,-6) scale(1,1)"><g><path fill="none" stroke="none"/><text fill="#000000" stroke="none" font-family="Arial" font-size="13px" font-style="normal" font-weight="normal" text-decoration="none" x="573" y="68.5">+getMoyen(): Moyen</text></g></g><g transform="translate(2,-6) scale(1,1)"><g><path fill="none" stroke="none"/><text fill="#000000" stroke="none" font-family="Arial" font-size="13px" font-style="normal" font-weight="normal" text-decoration="none" x="573" y="83.5">+getOrigine(): Terminal</text></g></g><g transform="translate(2,-6) scale(1,1)"><g><path fill="none" stroke="none"/><text fill="#000000" stroke="none" font-family="Arial" font-size="13px" font-style="normal" font-weight="normal" text-decoration="none" x="573" y="98.5">+getDestination(): Terminal</text></g></g><g transform="translate(2,-6) scale(1,1)"><g><path fill="none" stroke="none"/><text fill="#000000" stroke="none" font-family="Arial" font-size="13px" font-style="normal" font-weight="normal" text-decoration="none" x="573" y="113.5">+getFrequence(): int</text></g></g><g transform="translate(2,-6) scale(1,1)"><g><path fill="none" stroke="none"/><text fill="#000000" stroke="none" font-family="Arial" font-size="13px" font-style="normal" font-weight="normal" text-decoration="none" x="573" y="128.5">+setFrequence()</text></g></g><g transform="translate(2,-6) scale(1,1)"><rect fill="#C0C0C0" stroke="none" x="727" y="375" width="156.03076171875" height="57" opacity="0.2"/></g><g transform="translate(2,-6) scale(1,1)"><rect fill="#ffffff" stroke="none" x="720" y="368" width="156.03076171875" height="57"/></g><g transform="translate(2,-6) scale(1,1)"><path fill="none" stroke="#000000" d="M 720 368 L 876.03076171875 368 L 876.03076171875 425 L 720 425 L 720 368 Z Z" stroke-miterlimit="10"/></g><g transform="translate(2,-6) scale(1,1)"><path fill="none" stroke="#000000" d="M 720 393 L 876.03076171875 393" stroke-miterlimit="10"/></g><g transform="translate(2,-6) scale(1,1)"><path fill="none" stroke="#000000" d="M 720 416 L 876.03076171875 416" stroke-miterlimit="10"/></g><g transform="translate(2,-6) scale(1,1)"><g><path fill="none" stroke="none"/><text fill="#000000" stroke="none" font-family="Arial" font-size="13px" font-style="normal" font-weight="bold" text-decoration="none" x="737.3095703125" y="387.5">AeroportInternational</text></g></g><g transform="translate(2,-6) scale(1,1)"><g><path fill="none" stroke="none"/><text fill="#000000" stroke="none" font-family="Arial" font-size="13px" font-style="normal" font-weight="normal" text-decoration="none" x="725" y="410.5">-NB_LIAISONS_MAX = 4</text><path fill="none" stroke="#000000" d="M 725 410.5 L 872.03076171875 410.5" stroke-miterlimit="10"/></g></g><g transform="translate(2,-6) scale(1,1)"><rect fill="#C0C0C0" stroke="none" x="1119" y="327" width="175.5751953125" height="57" opacity="0.2"/></g><g transform="translate(2,-6) scale(1,1)"><rect fill="#ffffff" stroke="none" x="1112" y="320" width="175.5751953125" height="57"/></g><g transform="translate(2,-6) scale(1,1)"><path fill="none" stroke="#000000" d="M 1112 320 L 1287.5751953125 320 L 1287.5751953125 377 L 1112 377 L 1112 320 Z Z" stroke-miterlimit="10"/></g><g transform="translate(2,-6) scale(1,1)"><path fill="none" stroke="#000000" d="M 1112 345 L 1287.5751953125 345" stroke-miterlimit="10"/></g><g transform="translate(2,-6) scale(1,1)"><path fill="none" stroke="#000000" d="M 1112 368 L 1287.5751953125 368" stroke-miterlimit="10"/></g><g transform="translate(2,-6) scale(1,1)"><g><path fill="none" stroke="none"/><text fill="#000000" stroke="none" font-family="Arial" font-size="13px" font-style="normal" font-weight="bold" text-decoration="none" x="1149.199951171875" y="339.5">AeroportRegional</text></g></g><g transform="translate(2,-6) scale(1,1)"><g><path fill="none" stroke="none"/><text fill="#000000" stroke="none" font-family="Arial" font-size="13px" font-style="normal" font-weight="normal" text-decoration="none" x="1117" y="362.5">-NB_LIAISONS_MAX = 1</text><path fill="none" stroke="#000000" d="M 1117 362.5 L 1264.03076171875 362.5" stroke-miterlimit="10"/></g></g><g transform="translate(2,-6) scale(1,1)"><rect fill="#C0C0C0" stroke="none" x="15" y="79" width="44.62939453125" height="44" opacity="0.2"/></g><g transform="translate(2,-6) scale(1,1)"><rect fill="#ffffff" stroke="none" x="8" y="72" width="44.62939453125" height="44"/></g><g transform="translate(2,-6) scale(1,1)"><path fill="none" stroke="#000000" d="M 8 72 L 52.62939453125 72 L 52.62939453125 116 L 8 116 L 8 72 Z Z" stroke-miterlimit="10"/></g><g transform="translate(2,-6) scale(1,1)"><path fill="none" stroke="#000000" d="M 8 97 L 52.62939453125 97" stroke-miterlimit="10"/></g><g transform="translate(2,-6) scale(1,1)"><path fill="none" stroke="#000000" d="M 8 107 L 52.62939453125 107" stroke-miterlimit="10"/></g><g transform="translate(2,-6) scale(1,1)"><g><path fill="none" stroke="none"/><text fill="#000000" stroke="none" font-family="Arial" font-size="13px" font-style="normal" font-weight="bold" text-decoration="none" x="14.172607421875" y="91.5">Avion</text></g></g><g transform="translate(2,-6) scale(1,1)"><rect fill="#C0C0C0" stroke="none" x="167" y="207" width="107.48388671875" height="44" opacity="0.2"/></g><g transform="translate(2,-6) scale(1,1)"><rect fill="#ffffff" stroke="none" x="160" y="200" width="107.48388671875" height="44"/></g><g transform="translate(2,-6) scale(1,1)"><path fill="none" stroke="#000000" d="M 160 200 L 267.48388671875 200 L 267.48388671875 244 L 160 244 L 160 200 Z Z" stroke-miterlimit="10"/></g><g transform="translate(2,-6) scale(1,1)"><path fill="none" stroke="#000000" d="M 160 225 L 267.48388671875 225" stroke-miterlimit="10"/></g><g transform="translate(2,-6) scale(1,1)"><path fill="none" stroke="#000000" d="M 160 235 L 267.48388671875 235" stroke-miterlimit="10"/></g><g transform="translate(2,-6) scale(1,1)"><g><path fill="none" stroke="none"/><text fill="#000000" stroke="none" font-family="Arial" font-size="13px" font-style="normal" font-weight="bold" text-decoration="none" x="168.69580078125" y="219.5">AvionElectrique</text></g></g><g transform="translate(2,-6) scale(1,1)"><rect fill="#C0C0C0" stroke="none" x="1167" y="119" width="146.693359375" height="100" opacity="0.2"/></g><g transform="translate(2,-6) scale(1,1)"><rect fill="#ffffff" stroke="none" x="1160" y="112" width="146.693359375" height="100"/></g><g transform="translate(2,-6) scale(1,1)"><path fill="none" stroke="#000000" d="M 1160 112 L 1306.693359375 112 L 1306.693359375 212 L 1160 212 L 1160 112 Z Z" stroke-miterlimit="10"/></g><g transform="translate(2,-6) scale(1,1)"><path fill="none" stroke="#000000" d="M 1160 137 L 1306.693359375 137" stroke-miterlimit="10"/></g><g transform="translate(2,-6) scale(1,1)"><path fill="none" stroke="#000000" d="M 1160 175 L 1306.693359375 175" stroke-miterlimit="10"/></g><g transform="translate(2,-6) scale(1,1)"><g><path fill="none" stroke="none"/><text fill="#000000" stroke="none" font-family="Arial" font-size="13px" font-style="normal" font-weight="bold" text-decoration="none" x="1194.318115234375" y="131.5">Coordonnees</text></g></g><g transform="translate(2,-6) scale(1,1)"><g><path fill="none" stroke="none"/><text fill="#000000" stroke="none" font-family="Arial" font-size="13px" font-style="normal" font-weight="normal" text-decoration="none" x="1165" y="154.5">-latitude: double</text></g></g><g transform="translate(2,-6) scale(1,1)"><g><path fill="none" stroke="none"/><text fill="#000000" stroke="none" font-family="Arial" font-size="13px" font-style="normal" font-weight="normal" text-decoration="none" x="1165" y="169.5">-longitude: double</text></g></g><g transform="translate(2,-6) scale(1,1)"><g><path fill="none" stroke="none"/><text fill="#000000" stroke="none" font-family="Arial" font-size="13px" font-style="normal" font-weight="normal" text-decoration="none" x="1165" y="192.5">+getLatitude(): double</text></g></g><g transform="translate(2,-6) scale(1,1)"><g><path fill="none" stroke="none"/><text fill="#000000" stroke="none" font-family="Arial" font-size="13px" font-style="normal" font-weight="normal" text-decoration="none" x="1165" y="207.5">+getLongitude(): double</text></g></g><g transform="translate(2,-6) scale(1,1)"><rect fill="#C0C0C0" stroke="none" x="55" y="279" width="144.71923828125" height="98" opacity="0.2"/></g><g transform="translate(2,-6) scale(1,1)"><rect fill="#ffffff" stroke="none" x="48" y="272" width="144.71923828125" height="98"/></g><g transform="translate(2,-6) scale(1,1)"><path fill="none" stroke="#000000" d="M 48 272 L 192.71923828125 272 L 192.71923828125 370 L 48 370 L 48 272 Z Z" stroke-miterlimit="10"/></g><g transform="translate(2,-6) scale(1,1)"><path fill="none" stroke="#000000" d="M 48 310 L 192.71923828125 310" stroke-miterlimit="10"/></g><g transform="translate(2,-6) scale(1,1)"><path fill="none" stroke="#000000" d="M 48 333 L 192.71923828125 333" stroke-miterlimit="10"/></g><g transform="translate(2,-6) scale(1,1)"><g><path fill="none" stroke="none"/><text fill="#000000" stroke="none" font-family="Arial" font-size="13px" font-style="normal" font-weight="normal" text-decoration="none" x="87.110595703125" y="289.5">«singleton»</text></g></g><g transform="translate(2,-6) scale(1,1)"><g><path fill="none" stroke="none"/><text fill="#000000" stroke="none" font-family="Arial" font-size="13px" font-style="normal" font-weight="bold" text-decoration="none" x="108.080078125" y="304.5">Flux</text></g></g><g transform="translate(2,-6) scale(1,1)"><g><path fill="none" stroke="none"/><text fill="#000000" stroke="none" font-family="Arial" font-size="13px" font-style="normal" font-weight="normal" text-decoration="none" x="53" y="327.5">-flux: int[][]</text></g></g><g transform="translate(2,-6) scale(1,1)"><g><path fill="none" stroke="none"/><text fill="#000000" stroke="none" font-family="Arial" font-size="13px" font-style="normal" font-weight="normal" text-decoration="none" x="53" y="350.5">+getFlux(Voyage): int</text></g></g><g transform="translate(2,-6) scale(1,1)"><g><path fill="none" stroke="none"/><text fill="#000000" stroke="none" font-family="Arial" font-size="13px" font-style="normal" font-weight="normal" text-decoration="none" x="53" y="365.5">+getFlux(Ville, Ville): int</text></g></g><g transform="translate(2,-6) scale(1,1)"><rect fill="#C0C0C0" stroke="none" x="39" y="391" width="125.34619140625" height="120" opacity="0.2"/></g><g transform="translate(2,-6) scale(1,1)"><rect fill="#ffffff" stroke="none" x="32" y="384" width="125.34619140625" height="120"/></g><g transform="translate(2,-6) scale(1,1)"><path fill="none" stroke="#000000" d="M 32 384 L 157.34619140625 384 L 157.34619140625 504 L 32 504 L 32 384 Z Z" stroke-miterlimit="10"/></g><g transform="translate(2,-6) scale(1,1)"><path fill="none" stroke="#000000" d="M 32 422 L 157.34619140625 422" stroke-miterlimit="10"/></g><g transform="translate(2,-6) scale(1,1)"><g><path fill="none" stroke="none"/><text fill="#000000" stroke="none" font-family="Arial" font-size="13px" font-style="normal" font-weight="normal" text-decoration="none" x="51.30908203125" y="401.5">«enumeration»</text></g></g><g transform="translate(2,-6) scale(1,1)"><g><path fill="none" stroke="none"/><text fill="#000000" stroke="none" font-family="Arial" font-size="13px" font-style="normal" font-weight="bold" text-decoration="none" x="82.5078125" y="416.5">Ville</text></g></g><g transform="translate(2,-6) scale(1,1)"><g><path fill="none" stroke="none"/><text fill="#000000" stroke="none" font-family="Arial" font-size="13px" font-style="normal" font-weight="normal" text-decoration="none" x="37" y="439.5">Bruxelles</text></g></g><g transform="translate(2,-6) scale(1,1)"><g><path fill="none" stroke="none"/><text fill="#000000" stroke="none" font-family="Arial" font-size="13px" font-style="normal" font-weight="normal" text-decoration="none" x="37" y="454.5">Paris</text></g></g><g transform="translate(2,-6) scale(1,1)"><g><path fill="none" stroke="none"/><text fill="#000000" stroke="none" font-family="Arial" font-size="13px" font-style="normal" font-weight="normal" text-decoration="none" x="37" y="469.5">Lyon</text></g></g><g transform="translate(2,-6) scale(1,1)"><g><path fill="none" stroke="none"/><text fill="#000000" stroke="none" font-family="Arial" font-size="13px" font-style="normal" font-weight="normal" text-decoration="none" x="37" y="484.5">Rome</text></g></g><g transform="translate(2,-6) scale(1,1)"><g><path fill="none" stroke="none"/><text fill="#000000" stroke="none" font-family="Arial" font-size="13px" font-style="normal" font-weight="normal" text-decoration="none" x="37" y="499.5">Naples</text></g></g><g transform="translate(2,-6) scale(1,1)"><rect fill="#C0C0C0" stroke="none" x="1087" y="407" width="38.630859375" height="44" opacity="0.2"/></g><g transform="translate(2,-6) scale(1,1)"><rect fill="#ffffff" stroke="none" x="1080" y="400" width="38.630859375" height="44"/></g><g transform="translate(2,-6) scale(1,1)"><path fill="none" stroke="#000000" d="M 1080 400 L 1118.630859375 400 L 1118.630859375 444 L 1080 444 L 1080 400 Z Z" stroke-miterlimit="10"/></g><g transform="translate(2,-6) scale(1,1)"><path fill="none" stroke="#000000" d="M 1080 425 L 1118.630859375 425" stroke-miterlimit="10"/></g><g transform="translate(2,-6) scale(1,1)"><path fill="none" stroke="#000000" d="M 1080 435 L 1118.630859375 435" stroke-miterlimit="10"/></g><g transform="translate(2,-6) scale(1,1)"><g><path fill="none" stroke="none"/><text fill="#000000" stroke="none" font-family="Arial" font-size="13px" font-style="normal" font-weight="bold" text-decoration="none" x="1084.864990234375" y="419.5">Gare</text></g></g><g transform="translate(2,-6) scale(1,1)"><rect fill="#C0C0C0" stroke="none" x="895" y="383" width="163.2607421875" height="57" opacity="0.2"/></g><g transform="translate(2,-6) scale(1,1)"><rect fill="#ffffff" stroke="none" x="888" y="376" width="163.2607421875" height="57"/></g><g transform="translate(2,-6) scale(1,1)"><path fill="none" stroke="#000000" d="M 888 376 L 1051.2607421875 376 L 1051.2607421875 433 L 888 433 L 888 376 Z Z" stroke-miterlimit="10"/></g><g transform="translate(2,-6) scale(1,1)"><path fill="none" stroke="#000000" d="M 888 401 L 1051.2607421875 401" stroke-miterlimit="10"/></g><g transform="translate(2,-6) scale(1,1)"><path fill="none" stroke="#000000" d="M 888 424 L 1051.2607421875 424" stroke-miterlimit="10"/></g><g transform="translate(2,-6) scale(1,1)"><g><path fill="none" stroke="none"/><text fill="#000000" stroke="none" font-family="Arial" font-size="13px" font-style="normal" font-weight="bold" text-decoration="none" x="936.390869140625" y="395.5">HubAeroprt</text></g></g><g transform="translate(2,-6) scale(1,1)"><g><path fill="none" stroke="none"/><text fill="#000000" stroke="none" font-family="Arial" font-size="13px" font-style="normal" font-weight="normal" text-decoration="none" x="893" y="418.5">-NB_LIAISONS_MAX = 12</text><path fill="none" stroke="#000000" d="M 893 418.5 L 1047.2607421875 418.5" stroke-miterlimit="10"/></g></g><g transform="translate(2,-6) scale(1,1)"><rect fill="#C0C0C0" stroke="none" x="951" y="495" width="102.87548828125" height="44" opacity="0.2"/></g><g transform="translate(2,-6) scale(1,1)"><rect fill="#ffffff" stroke="none" x="944" y="488" width="102.87548828125" height="44"/></g><g transform="translate(2,-6) scale(1,1)"><path fill="none" stroke="#000000" d="M 944 488 L 1046.87548828125 488 L 1046.87548828125 532 L 944 532 L 944 488 Z Z" stroke-miterlimit="10"/></g><g transform="translate(2,-6) scale(1,1)"><path fill="none" stroke="#000000" d="M 944 513 L 1046.87548828125 513" stroke-miterlimit="10"/></g><g transform="translate(2,-6) scale(1,1)"><path fill="none" stroke="#000000" d="M 944 523 L 1046.87548828125 523" stroke-miterlimit="10"/></g><g transform="translate(2,-6) scale(1,1)"><g><path fill="none" stroke="none"/><text fill="#000000" stroke="none" font-family="Arial" font-size="13px" font-style="normal" font-weight="bold" text-decoration="none" x="952.08642578125" y="507.5">HubMultimodal</text></g></g><g transform="translate(2,-6) scale(1,1)"><rect fill="#C0C0C0" stroke="none" x="399" y="49" width="112.103515625" height="57" opacity="0.2"/></g><g transform="translate(2,-6) scale(1,1)"><rect fill="#C0C0C0" stroke="none" x="503.16259765625" y="31" width="16.94091796875" height="22" opacity="0.2"/></g><g transform="translate(2,-6) scale(1,1)"><rect fill="#ffffff" stroke="none" x="392" y="42" width="112.103515625" height="57"/></g><g transform="translate(2,-6) scale(1,1)"><path fill="none" stroke="#000000" d="M 392 42 L 504.103515625 42 L 504.103515625 99 L 392 99 L 392 42 Z Z" stroke-miterlimit="10"/></g><g transform="translate(2,-6) scale(1,1)"><path fill="none" stroke="#000000" d="M 392 67 L 504.103515625 67" stroke-miterlimit="10"/></g><g transform="translate(2,-6) scale(1,1)"><path fill="none" stroke="#000000" d="M 392 90 L 504.103515625 90" stroke-miterlimit="10"/></g><g transform="translate(2,-6) scale(1,1)"><g><path fill="none" stroke="none"/><text fill="#000000" stroke="none" font-family="Arial" font-size="13px" font-style="normal" font-weight="bold" text-decoration="none" x="432.147705078125" y="61.5">Ligne</text></g></g><g transform="translate(2,-6) scale(1,1)"><g><path fill="none" stroke="none"/><text fill="#000000" stroke="none" font-family="Arial" font-size="13px" font-style="normal" font-weight="normal" text-decoration="none" x="397" y="84.5">-frequence: int</text></g></g><g transform="translate(2,-6) scale(1,1)"><rect fill="#ffffff" stroke="none" x="496.16259765625" y="24" width="16.94091796875" height="22"/></g><g transform="translate(2,-6) scale(1,1)"><path fill="none" stroke="#000000" d="M 496.16259765625 24 L 513.103515625 24 L 513.103515625 46 L 496.16259765625 46 L 496.16259765625 24 Z Z" stroke-miterlimit="10" stroke-dasharray="3"/></g><g transform="translate(2,-6) scale(1,1)"><g><path fill="none" stroke="none"/><text fill="#000000" stroke="none" font-family="Arial" font-size="13px" font-style="normal" font-weight="normal" text-decoration="none" x="501.16259765625" y="41.5">T</text></g></g><g transform="translate(2,-6) scale(1,1)"><rect fill="#C0C0C0" stroke="none" x="111" y="23" width="182.443359375" height="130" opacity="0.2"/></g><g transform="translate(2,-6) scale(1,1)"><rect fill="#ffffff" stroke="none" x="104" y="16" width="182.443359375" height="130"/></g><g transform="translate(2,-6) scale(1,1)"><path fill="none" stroke="#000000" d="M 104 16 L 286.443359375 16 L 286.443359375 146 L 104 146 L 104 16 Z Z" stroke-miterlimit="10"/></g><g transform="translate(2,-6) scale(1,1)"><path fill="none" stroke="#000000" d="M 104 41 L 286.443359375 41" stroke-miterlimit="10"/></g><g transform="translate(2,-6) scale(1,1)"><path fill="none" stroke="#000000" d="M 104 94 L 286.443359375 94" stroke-miterlimit="10"/></g><g transform="translate(2,-6) scale(1,1)"><g><path fill="none" stroke="none"/><text fill="#000000" stroke="none" font-family="Arial" font-size="13px" font-style="normal" font-weight="bold" text-decoration="none" x="175.712158203125" y="35.5">Moyen</text></g></g><g transform="translate(2,-6) scale(1,1)"><g><path fill="none" stroke="none"/><text fill="#000000" stroke="none" font-family="Arial" font-size="13px" font-style="normal" font-weight="normal" text-decoration="none" x="109" y="58.5">-capacite: double {readOnly}</text></g></g><g transform="translate(2,-6) scale(1,1)"><g><path fill="none" stroke="none"/><text fill="#000000" stroke="none" font-family="Arial" font-size="13px" font-style="normal" font-weight="normal" text-decoration="none" x="109" y="73.5">-vitesse: double {readOnly}</text></g></g><g transform="translate(2,-6) scale(1,1)"><g><path fill="none" stroke="none"/><text fill="#000000" stroke="none" font-family="Arial" font-size="13px" font-style="normal" font-weight="normal" text-decoration="none" x="109" y="88.5">-empreinte: double {readOnly}</text></g></g><g transform="translate(2,-6) scale(1,1)"><g><path fill="none" stroke="none"/><text fill="#000000" stroke="none" font-family="Arial" font-size="13px" font-style="normal" font-weight="normal" text-decoration="none" x="109" y="111.5">+getCapacite(): double</text></g></g><g transform="translate(2,-6) scale(1,1)"><g><path fill="none" stroke="none"/><text fill="#000000" stroke="none" font-family="Arial" font-size="13px" font-style="normal" font-weight="normal" text-decoration="none" x="109" y="126.5">+getVitesse(): double</text></g></g><g transform="translate(2,-6) scale(1,1)"><g><path fill="none" stroke="none"/><text fill="#000000" stroke="none" font-family="Arial" font-size="13px" font-style="normal" font-weight="normal" text-decoration="none" x="109" y="141.5">+getEmpreinte(): double</text></g></g><g transform="translate(2,-6) scale(1,1)"><rect fill="#C0C0C0" stroke="none" x="79" y="175" width="40.0654296875" height="44" opacity="0.2"/></g><g transform="translate(2,-6) scale(1,1)"><rect fill="#ffffff" stroke="none" x="72" y="168" width="40.0654296875" height="44"/></g><g transform="translate(2,-6) scale(1,1)"><path fill="none" stroke="#000000" d="M 72 168 L 112.0654296875 168 L 112.0654296875 212 L 72 212 L 72 168 Z Z" stroke-miterlimit="10"/></g><g transform="translate(2,-6) scale(1,1)"><path fill="none" stroke="#000000" d="M 72 193 L 112.0654296875 193" stroke-miterlimit="10"/></g><g transform="translate(2,-6) scale(1,1)"><path fill="none" stroke="#000000" d="M 72 203 L 112.0654296875 203" stroke-miterlimit="10"/></g><g transform="translate(2,-6) scale(1,1)"><g><path fill="none" stroke="none"/><text fill="#000000" stroke="none" font-family="Arial" font-size="13px" font-style="normal" font-weight="bold" text-decoration="none" x="77.46484375" y="187.5">Train</text></g></g><g transform="translate(2,-6) scale(1,1)"><rect fill="#C0C0C0" stroke="none" x="847" y="31" width="210.97607421875" height="310" opacity="0.2"/></g><g transform="translate(2,-6) scale(1,1)"><rect fill="#ffffff" stroke="none" x="840" y="24" width="210.97607421875" height="310"/></g><g transform="translate(2,-6) scale(1,1)"><path fill="none" stroke="#000000" d="M 840 24 L 1050.97607421875 24 L 1050.97607421875 334 L 840 334 L 840 24 Z Z" stroke-miterlimit="10"/></g><g transform="translate(2,-6) scale(1,1)"><path fill="none" stroke="#000000" d="M 840 49 L 1050.97607421875 49" stroke-miterlimit="10"/></g><g transform="translate(2,-6) scale(1,1)"><path fill="none" stroke="#000000" d="M 840 132 L 1050.97607421875 132" stroke-miterlimit="10"/></g><g transform="translate(2,-6) scale(1,1)"><g><path fill="none" stroke="none"/><text fill="#000000" stroke="none" font-family="Arial" font-size="13px" font-style="normal" font-weight="bold" text-decoration="none" x="920.92578125" y="43.5">Terminal</text></g></g><g transform="translate(2,-6) scale(1,1)"><g><path fill="none" stroke="none"/><text fill="#000000" stroke="none" font-family="Arial" font-size="13px" font-style="normal" font-weight="normal" text-decoration="none" x="845" y="66.5">#NB_TERMINAUX: int</text><path fill="none" stroke="#000000" d="M 845 66.5 L 975.03173828125 66.5" stroke-miterlimit="10"/></g></g><g transform="translate(2,-6) scale(1,1)"><g><path fill="none" stroke="none"/><text fill="#000000" stroke="none" font-family="Arial" font-size="13px" font-style="normal" font-weight="normal" text-decoration="none" x="845" y="81.5">#nom: string</text></g></g><g transform="translate(2,-6) scale(1,1)"><g><path fill="none" stroke="none"/><text fill="#000000" stroke="none" font-family="Arial" font-size="13px" font-style="normal" font-weight="normal" text-decoration="none" x="845" y="96.5">#tempsMoyen: double</text></g></g><g transform="translate(2,-6) scale(1,1)"><g><path fill="none" stroke="none"/><text fill="#000000" stroke="none" font-family="Arial" font-size="13px" font-style="normal" font-weight="normal" text-decoration="none" x="845" y="111.5">#flux: map&lt;Coordonnees, int&gt;</text></g></g><g transform="translate(2,-6) scale(1,1)"><g><path fill="none" stroke="none"/><text fill="#000000" stroke="none" font-family="Arial" font-size="13px" font-style="normal" font-weight="normal" text-decoration="none" x="845" y="126.5">#indice: int {readOnly}</text></g></g><g transform="translate(2,-6) scale(1,1)"><g><path fill="none" stroke="none"/><text fill="#000000" stroke="none" font-family="Arial" font-size="13px" font-style="normal" font-weight="normal" text-decoration="none" x="845" y="149.5">+getNom(): string</text></g></g><g transform="translate(2,-6) scale(1,1)"><g><path fill="none" stroke="none"/><text fill="#000000" stroke="none" font-family="Arial" font-size="13px" font-style="normal" font-weight="normal" text-decoration="none" x="845" y="164.5">+getPosition(): Coordonnees</text></g></g><g transform="translate(2,-6) scale(1,1)"><g><path fill="none" stroke="none"/><text fill="#000000" stroke="none" font-family="Arial" font-size="13px" font-style="normal" font-weight="normal" text-decoration="none" x="845" y="179.5">+getLiaisons(): list&lt;AbstractLigne&gt;</text></g></g><g transform="translate(2,-6) scale(1,1)"><g><path fill="none" stroke="none"/><text fill="#000000" stroke="none" font-family="Arial" font-size="13px" font-style="normal" font-weight="normal" text-decoration="none" x="845" y="194.5">+getTempsMoyen(): double</text></g></g><g transform="translate(2,-6) scale(1,1)"><g><path fill="none" stroke="none"/><text fill="#000000" stroke="none" font-family="Arial" font-size="13px" font-style="normal" font-weight="normal" text-decoration="none" x="845" y="209.5">+getFlux(): map&lt;Coordonnees int&gt;</text></g></g><g transform="translate(2,-6) scale(1,1)"><g><path fill="none" stroke="none"/><text fill="#000000" stroke="none" font-family="Arial" font-size="13px" font-style="normal" font-weight="normal" text-decoration="none" x="845" y="224.5">+getNBTERMINAUX(): int</text></g></g><g transform="translate(2,-6) scale(1,1)"><g><path fill="none" stroke="none"/><text fill="#000000" stroke="none" font-family="Arial" font-size="13px" font-style="normal" font-weight="normal" text-decoration="none" x="845" y="239.5">+getIndice(): int</text></g></g><g transform="translate(2,-6) scale(1,1)"><g><path fill="none" stroke="none"/><text fill="#000000" stroke="none" font-family="Arial" font-size="13px" font-style="italic" font-weight="normal" text-decoration="none" x="845" y="254.5">+ajoutLiaisonPossible(): bool</text></g></g><g transform="translate(2,-6) scale(1,1)"><g><path fill="none" stroke="none"/><text fill="#000000" stroke="none" font-family="Arial" font-size="13px" font-style="normal" font-weight="normal" text-decoration="none" x="845" y="269.5">+ajoutLiaison1sens()</text></g></g><g transform="translate(2,-6) scale(1,1)"><g><path fill="none" stroke="none"/><text fill="#000000" stroke="none" font-family="Arial" font-size="13px" font-style="normal" font-weight="normal" text-decoration="none" x="845" y="284.5">+ajoutLiaison2sens()</text></g></g><g transform="translate(2,-6) scale(1,1)"><g><path fill="none" stroke="none"/><text fill="#000000" stroke="none" font-family="Arial" font-size="13px" font-style="normal" font-weight="normal" text-decoration="none" x="845" y="299.5">+estAccessible(): bool</text></g></g><g transform="translate(2,-6) scale(1,1)"><g><path fill="none" stroke="none"/><text fill="#000000" stroke="none" font-family="Arial" font-size="13px" font-style="normal" font-weight="normal" text-decoration="none" x="845" y="314.5">+distance(): double</text></g></g><g transform="translate(2,-6) scale(1,1)"><g><path fill="none" stroke="none"/><text fill="#000000" stroke="none" font-family="Arial" font-size="13px" font-style="normal" font-weight="normal" text-decoration="none" x="845" y="329.5">+setFlux(Terminal[])</text></g></g><g transform="translate(2,-6) scale(1,1)"><rect fill="#C0C0C0" stroke="none" x="335" y="199" width="241.3115234375" height="175" opacity="0.2"/></g><g transform="translate(2,-6) scale(1,1)"><rect fill="#ffffff" stroke="none" x="328" y="192" width="241.3115234375" height="175"/></g><g transform="translate(2,-6) scale(1,1)"><path fill="none" stroke="#000000" d="M 328 192 L 569.3115234375 192 L 569.3115234375 367 L 328 367 L 328 192 Z Z" stroke-miterlimit="10"/></g><g transform="translate(2,-6) scale(1,1)"><path fill="none" stroke="#000000" d="M 328 217 L 569.3115234375 217" stroke-miterlimit="10"/></g><g transform="translate(2,-6) scale(1,1)"><path fill="none" stroke="#000000" d="M 328 240 L 569.3115234375 240" stroke-miterlimit="10"/></g><g transform="translate(2,-6) scale(1,1)"><g><path fill="none" stroke="none"/><text fill="#000000" stroke="none" font-family="Arial" font-size="13px" font-style="normal" font-weight="bold" text-decoration="none" x="426.968994140625" y="211.5">Voyage</text></g></g><g transform="translate(2,-6) scale(1,1)"><g><path fill="none" stroke="none"/><text fill="#000000" stroke="none" font-family="Arial" font-size="13px" font-style="normal" font-weight="normal" text-decoration="none" x="333" y="234.5">-lignes: list&lt;AbstractLigne&gt;</text></g></g><g transform="translate(2,-6) scale(1,1)"><g><path fill="none" stroke="none"/><text fill="#000000" stroke="none" font-family="Arial" font-size="13px" font-style="normal" font-weight="normal" text-decoration="none" x="333" y="257.5">+getOrigine(): Terminal</text></g></g><g transform="translate(2,-6) scale(1,1)"><g><path fill="none" stroke="none"/><text fill="#000000" stroke="none" font-family="Arial" font-size="13px" font-style="normal" font-weight="normal" text-decoration="none" x="333" y="272.5">+getDestination(): Terminal</text></g></g><g transform="translate(2,-6) scale(1,1)"><g><path fill="none" stroke="none"/><text fill="#000000" stroke="none" font-family="Arial" font-size="13px" font-style="normal" font-weight="normal" text-decoration="none" x="333" y="287.5">+ajoutLigne()</text></g></g><g transform="translate(2,-6) scale(1,1)"><g><path fill="none" stroke="none"/><text fill="#000000" stroke="none" font-family="Arial" font-size="13px" font-style="normal" font-weight="normal" text-decoration="none" x="333" y="302.5">+tempsTrajet(): double</text></g></g><g transform="translate(2,-6) scale(1,1)"><g><path fill="none" stroke="none"/><text fill="#000000" stroke="none" font-family="Arial" font-size="13px" font-style="normal" font-weight="normal" text-decoration="none" x="333" y="317.5">+empreinteTotal(): double</text></g></g><g transform="translate(2,-6) scale(1,1)"><g><path fill="none" stroke="none"/><text fill="#000000" stroke="none" font-family="Arial" font-size="13px" font-style="normal" font-weight="normal" text-decoration="none" x="333" y="332.5">+determinerCorrespondances(Scenario)</text></g></g><g transform="translate(2,-6) scale(1,1)"><rect fill="#C0C0C0" stroke="none" x="487" y="471" width="216.5048828125" height="190" opacity="0.2"/></g><g transform="translate(2,-6) scale(1,1)"><rect fill="#ffffff" stroke="none" x="480" y="464" width="216.5048828125" height="190"/></g><g transform="translate(2,-6) scale(1,1)"><path fill="none" stroke="#000000" d="M 480 464 L 696.5048828125 464 L 696.5048828125 654 L 480 654 L 480 464 Z Z" stroke-miterlimit="10"/></g><g transform="translate(2,-6) scale(1,1)"><path fill="none" stroke="#000000" d="M 480 489 L 696.5048828125 489" stroke-miterlimit="10"/></g><g transform="translate(2,-6) scale(1,1)"><path fill="none" stroke="#000000" d="M 480 527 L 696.5048828125 527" stroke-miterlimit="10"/></g><g transform="translate(2,-6) scale(1,1)"><g><path fill="none" stroke="none"/><text fill="#000000" stroke="none" font-family="Arial" font-size="13px" font-style="normal" font-weight="bold" text-decoration="none" x="562.598388671875" y="483.5">Scenario</text></g></g><g transform="translate(2,-6) scale(1,1)"><g><path fill="none" stroke="none"/><text fill="#000000" stroke="none" font-family="Arial" font-size="13px" font-style="normal" font-weight="normal" text-decoration="none" x="485" y="506.5">-tempsTrajet[][]: double</text></g></g><g transform="translate(2,-6) scale(1,1)"><g><path fill="none" stroke="none"/><text fill="#000000" stroke="none" font-family="Arial" font-size="13px" font-style="normal" font-weight="normal" text-decoration="none" x="485" y="521.5">-empreinte[][]: double</text></g></g><g transform="translate(2,-6) scale(1,1)"><g><path fill="none" stroke="none"/><text fill="#000000" stroke="none" font-family="Arial" font-size="13px" font-style="normal" font-weight="normal" text-decoration="none" x="485" y="544.5">-scenario[1-6]()</text></g></g><g transform="translate(2,-6) scale(1,1)"><g><path fill="none" stroke="none"/><text fill="#000000" stroke="none" font-family="Arial" font-size="13px" font-style="normal" font-weight="normal" text-decoration="none" x="485" y="559.5">-setFluxAll()</text></g></g><g transform="translate(2,-6) scale(1,1)"><g><path fill="none" stroke="none"/><text fill="#000000" stroke="none" font-family="Arial" font-size="13px" font-style="normal" font-weight="normal" text-decoration="none" x="485" y="574.5">-calculsInformationsVoyages()</text></g></g><g transform="translate(2,-6) scale(1,1)"><g><path fill="none" stroke="none"/><text fill="#000000" stroke="none" font-family="Arial" font-size="13px" font-style="normal" font-weight="normal" text-decoration="none" x="485" y="589.5">+afficherInformationsVoyages()</text></g></g><g transform="translate(2,-6) scale(1,1)"><g><path fill="none" stroke="none"/><text fill="#000000" stroke="none" font-family="Arial" font-size="13px" font-style="normal" font-weight="normal" text-decoration="none" x="485" y="604.5">+getTempsTrajet(Ville, Ville): double</text></g></g><g transform="translate(2,-6) scale(1,1)"><g><path fill="none" stroke="none"/><text fill="#000000" stroke="none" font-family="Arial" font-size="13px" font-style="normal" font-weight="normal" text-decoration="none" x="485" y="619.5">+getEmpreinte(Ville, Ville): double</text></g></g><g transform="translate(2,-6) scale(1,1)"><g><path fill="none" stroke="none"/><text fill="#000000" stroke="none" font-family="Arial" font-size="13px" font-style="normal" font-weight="normal" text-decoration="none" x="485" y="634.5">+getTerminal(int): Terminal</text></g></g><g transform="translate(2,-6) scale(1,1)"><path fill="none" stroke="#000000" d="M 514 61 L 568 61" stroke-miterlimit="10"/></g><g transform="translate(2,-6) scale(1,1)"><path fill="#FFFFFF" stroke="none" d="M 547.6746502847517 69.41903551203198 L 568 61 L 547.6746502847517 52.580964487968025"/></g><g transform="translate(2,-6) scale(1,1)"><path fill="none" stroke="#000000" d="M 547.6746502847517 69.41903551203198 L 568 61 L 547.6746502847517 52.580964487968025 L 547.6746502847517 69.41903551203198" stroke-miterlimit="10"/></g><g transform="translate(2,-6) scale(1,1)"><path fill="none" stroke="#000000" d="M 53 96 L 104 96" stroke-miterlimit="10"/></g><g transform="translate(2,-6) scale(1,1)"><path fill="#FFFFFF" stroke="none" d="M 83.67465028475169 104.41903551203198 L 104 96 L 83.67465028475169 87.58096448796803"/></g><g transform="translate(2,-6) scale(1,1)"><path fill="none" stroke="#000000" d="M 83.67465028475169 104.41903551203198 L 104 96 L 83.67465028475169 87.58096448796803 L 83.67465028475169 104.41903551203198" stroke-miterlimit="10"/></g><g transform="translate(2,-6) scale(1,1)"><path fill="none" stroke="#000000" d="M 113 168 L 133 147" stroke-miterlimit="10"/></g><g transform="translate(2,-6) scale(1,1)"><path fill="#FFFFFF" stroke="none" d="M 125.07906039474845 167.5245880779605 L 133 147 L 112.88597448077111 155.91212530274396"/></g><g transform="translate(2,-6) scale(1,1)"><path fill="none" stroke="#000000" d="M 125.07906039474845 167.5245880779605 L 133 147 L 112.88597448077111 155.91212530274396 L 125.07906039474845 167.5245880779605" stroke-miterlimit="10"/></g><g transform="translate(2,-6) scale(1,1)"><path fill="none" stroke="#000000" d="M 267 224 L 281 224 L 281 146" stroke-miterlimit="10"/></g><g transform="translate(2,-6) scale(1,1)"><path fill="#FFFFFF" stroke="none" d="M 289.419035512032 166.3253497152483 L 281 146 L 272.580964487968 166.3253497152483"/></g><g transform="translate(2,-6) scale(1,1)"><path fill="none" stroke="#000000" d="M 289.419035512032 166.3253497152483 L 281 146 L 272.580964487968 166.3253497152483 L 289.419035512032 166.3253497152483" stroke-miterlimit="10"/></g><g transform="translate(2,-6) scale(1,1)"><path fill="none" stroke="#000000" d="M 287 74 L 391 66" stroke-miterlimit="10"/></g><g transform="translate(2,-6) scale(1,1)"><path fill="#000000" stroke="none" d="M 381.19011472239123 70.976560141318 L 391 66 L 380.5444041746321 62.58232302044942 L 369.0648013189652 67.68732297546421"/></g><g transform="translate(2,-6) scale(1,1)"><path fill="none" stroke="#000000" d="M 381.19011472239123 70.976560141318 L 391 66 L 380.5444041746321 62.58232302044942 L 369.0648013189652 67.68732297546421 L 381.19011472239123 70.976560141318" stroke-miterlimit="10"/></g><g transform="translate(2,-6) scale(1,1)"><g><path fill="none" stroke="none"/><text fill="#000000" stroke="none" font-family="Arial" font-size="13px" font-style="normal" font-weight="normal" text-decoration="none" x="305.5" y="90.5">1</text></g></g><g transform="translate(2,-6) scale(1,1)"><g><path fill="none" stroke="none"/><text fill="#000000" stroke="none" font-family="Arial" font-size="13px" font-style="normal" font-weight="normal" text-decoration="none" x="334.13134765625" y="59.5">-moyen: T</text></g></g><g transform="translate(2,-6) scale(1,1)"><path fill="none" stroke="#000000" d="M 1159 166 L 1052 173" stroke-miterlimit="10"/></g><g transform="translate(2,-6) scale(1,1)"><path fill="#000000" stroke="none" d="M 1061.8661954701652 168.1360317697898 L 1052 173 L 1062.4157986405232 176.53710880240817 L 1073.9530722317854 171.56381770446265"/></g><g transform="translate(2,-6) scale(1,1)"><path fill="none" stroke="#000000" d="M 1061.8661954701652 168.1360317697898 L 1052 173 L 1062.4157986405232 176.53710880240817 L 1073.9530722317854 171.56381770446265 L 1061.8661954701652 168.1360317697898" stroke-miterlimit="10"/></g><g transform="translate(2,-6) scale(1,1)"><g><path fill="none" stroke="none"/><text fill="#000000" stroke="none" font-family="Arial" font-size="13px" font-style="normal" font-weight="normal" text-decoration="none" x="1132.5" y="160.5">1</text></g></g><g transform="translate(2,-6) scale(1,1)"><g><path fill="none" stroke="none"/><text fill="#000000" stroke="none" font-family="Arial" font-size="13px" font-style="normal" font-weight="normal" text-decoration="none" x="1045.680908203125" y="144.5">#position</text></g></g><g transform="translate(2,-6) scale(1,1)"><g><path fill="none" stroke="none"/><text fill="#000000" stroke="none" font-family="Arial" font-size="13px" font-style="normal" font-weight="normal" text-decoration="none" x="1053.5" y="128.5">{readOnly}</text></g></g><g transform="translate(2,-6) scale(1,1)"><path fill="none" stroke="#000000" d="M 840 80 L 733 80" stroke-miterlimit="10"/></g><g transform="translate(2,-6) scale(1,1)"><g><path fill="none" stroke="none"/><text fill="#000000" stroke="none" font-family="Arial" font-size="13px" font-style="normal" font-weight="normal" text-decoration="none" x="814.641357421875" y="73.5">2</text></g></g><g transform="translate(2,-6) scale(1,1)"><g><path fill="none" stroke="none"/><text fill="#000000" stroke="none" font-family="Arial" font-size="13px" font-style="normal" font-weight="normal" text-decoration="none" x="740.707763671875" y="99.5">#liaisons</text></g></g><g transform="translate(2,-6) scale(1,1)"><g><path fill="none" stroke="none"/><text fill="#000000" stroke="none" font-family="Arial" font-size="13px" font-style="normal" font-weight="normal" text-decoration="none" x="735.5" y="76.5">0..*</text></g></g><g transform="translate(2,-6) scale(1,1)"><path fill="none" stroke="#000000" d="M 818 367 L 839 335" stroke-miterlimit="10"/></g><g transform="translate(2,-6) scale(1,1)"><path fill="#FFFFFF" stroke="none" d="M 834.887083004354 356.6121242312487 L 839 335 L 820.8096489021593 347.3738081016834"/></g><g transform="translate(2,-6) scale(1,1)"><path fill="none" stroke="#000000" d="M 834.887083004354 356.6121242312487 L 839 335 L 820.8096489021593 347.3738081016834 L 834.887083004354 356.6121242312487" stroke-miterlimit="10"/></g><g transform="translate(2,-6) scale(1,1)"><path fill="none" stroke="#000000" d="M 966 375 L 962 335" stroke-miterlimit="10"/></g><g transform="translate(2,-6) scale(1,1)"><path fill="#FFFFFF" stroke="none" d="M 972.39970132724 354.38675352667906 L 962 335 L 955.6451944468992 356.0622042147131"/></g><g transform="translate(2,-6) scale(1,1)"><path fill="none" stroke="#000000" d="M 972.39970132724 354.38675352667906 L 962 335 L 955.6451944468992 356.0622042147131 L 972.39970132724 354.38675352667906" stroke-miterlimit="10"/></g><g transform="translate(2,-6) scale(1,1)"><path fill="none" stroke="#000000" d="M 1084 399 L 1044 335" stroke-miterlimit="10"/></g><g transform="translate(2,-6) scale(1,1)"><path fill="#FFFFFF" stroke="none" d="M 1061.9117416398371 347.7737821896148 L 1044 335 L 1047.6330859687139 356.6979419840669"/></g><g transform="translate(2,-6) scale(1,1)"><path fill="none" stroke="#000000" d="M 1061.9117416398371 347.7737821896148 L 1044 335 L 1047.6330859687139 356.6979419840669 L 1061.9117416398371 347.7737821896148" stroke-miterlimit="10"/></g><g transform="translate(2,-6) scale(1,1)"><path fill="none" stroke="#000000" d="M 1155 319 L 1052 250" stroke-miterlimit="10"/></g><g transform="translate(2,-6) scale(1,1)"><path fill="#FFFFFF" stroke="none" d="M 1073.572148618924 254.31768502360433 L 1052 250 L 1064.200748213987 268.3068769324234"/></g><g transform="translate(2,-6) scale(1,1)"><path fill="none" stroke="#000000" d="M 1073.572148618924 254.31768502360433 L 1052 250 L 1064.200748213987 268.3068769324234 L 1073.572148618924 254.31768502360433" stroke-miterlimit="10"/></g><g transform="translate(2,-6) scale(1,1)"><path fill="none" stroke="#000000" d="M 989 487 L 976 434" stroke-miterlimit="10"/></g><g transform="translate(2,-6) scale(1,1)"><path fill="#FFFFFF" stroke="none" d="M 989.0185944483204 451.73460455127656 L 976 434 L 972.6652772760555 455.7457955557944"/></g><g transform="translate(2,-6) scale(1,1)"><path fill="none" stroke="#000000" d="M 989.0185944483204 451.73460455127656 L 976 434 L 972.6652772760555 455.7457955557944 L 989.0185944483204 451.73460455127656" stroke-miterlimit="10"/></g><g transform="translate(2,-6) scale(1,1)"><path fill="none" stroke="#000000" d="M 1079 439 L 1022 487" stroke-miterlimit="10"/></g><g transform="translate(2,-6) scale(1,1)"><path fill="#000000" stroke="none" d="M 1027.062042942262 477.2339505811872 L 1022 487 L 1032.4850446605765 483.67376512168556 L 1038.8280463585752 472.82901359277884"/></g><g transform="translate(2,-6) scale(1,1)"><path fill="none" stroke="#000000" d="M 1027.062042942262 477.2339505811872 L 1022 487 L 1032.4850446605765 483.67376512168556 L 1038.8280463585752 472.82901359277884 L 1027.062042942262 477.2339505811872" stroke-miterlimit="10"/></g><g transform="translate(2,-6) scale(1,1)"><path fill="none" stroke="#000000" d="M 570 254 L 839 200" stroke-miterlimit="10"/></g><g transform="translate(2,-6) scale(1,1)"><path fill="#000000" stroke="none" d="M 829.8646092592015 206.1273677882868 L 839 200 L 828.207599944471 197.87300657231424 L 817.4303146729967 204.32997400616424"/></g><g transform="translate(2,-6) scale(1,1)"><path fill="none" stroke="#000000" d="M 829.8646092592015 206.1273677882868 L 839 200 L 828.207599944471 197.87300657231424 L 817.4303146729967 204.32997400616424 L 829.8646092592015 206.1273677882868" stroke-miterlimit="10"/></g><g transform="translate(2,-6) scale(1,1)"><g><path fill="none" stroke="none"/><text fill="#000000" stroke="none" font-family="Arial" font-size="13px" font-style="normal" font-weight="normal" text-decoration="none" x="805.5" y="223.5">2</text></g></g><g transform="translate(2,-6) scale(1,1)"><path fill="none" stroke="#000000" d="M 535 191 L 591 134" stroke-miterlimit="10"/></g><g transform="translate(2,-6) scale(1,1)"><path fill="#FFFFFF" stroke="none" d="M 586.8805787221128 144.19952784864523 L 591 134 L 580.8749739731637 138.29928458651983 L 575.5819213398912 149.69340149332504"/></g><g transform="translate(2,-6) scale(1,1)"><path fill="none" stroke="#000000" d="M 586.8805787221128 144.19952784864523 L 591 134 L 580.8749739731637 138.29928458651983 L 575.5819213398912 149.69340149332504 L 586.8805787221128 144.19952784864523" stroke-miterlimit="10"/></g><g transform="translate(2,-6) scale(1,1)"><g><path fill="none" stroke="none"/><text fill="#000000" stroke="none" font-family="Arial" font-size="13px" font-style="normal" font-weight="normal" text-decoration="none" x="556.5" y="183.5">+lignesDeCorrespondances</text></g></g><g transform="translate(2,-6) scale(1,1)"><g><path fill="none" stroke="none"/><text fill="#000000" stroke="none" font-family="Arial" font-size="13px" font-style="normal" font-weight="normal" text-decoration="none" x="574.5" y="164.5">0..*</text></g></g><g transform="translate(2,-6) scale(1,1)"><path fill="none" stroke="#000000" d="M 664 464 L 664 288 L 840 288" stroke-miterlimit="10"/></g><g transform="translate(2,-6) scale(1,1)"><path fill="#FFFFFF" stroke="none" d="M 829.8373251423759 292.209517756016 L 840 288 L 829.8373251423758 283.790482243984 L 818 288"/></g><g transform="translate(2,-6) scale(1,1)"><path fill="none" stroke="#000000" d="M 829.8373251423759 292.209517756016 L 840 288 L 829.8373251423758 283.790482243984 L 818 288 L 829.8373251423759 292.209517756016" stroke-miterlimit="10"/></g><g transform="translate(2,-6) scale(1,1)"><path fill="none" stroke="#000000" d="M 807.8373251423759 292.209517756016 L 818 288 L 807.8373251423758 283.790482243984" stroke-miterlimit="10"/></g><g transform="translate(2,-6) scale(1,1)"><g><path fill="none" stroke="none"/><text fill="#000000" stroke="none" font-family="Arial" font-size="13px" font-style="normal" font-weight="normal" text-decoration="none" x="672.641357421875" y="460.5">1</text></g></g><g transform="translate(2,-6) scale(1,1)"><g><path fill="none" stroke="none"/><text fill="#000000" stroke="none" font-family="Arial" font-size="13px" font-style="normal" font-weight="normal" text-decoration="none" x="783.5" y="306.5">0..*</text></g></g></g></svg>
